# xmcd
#
# Track frame offsets:
#	150
#	20442
#	43155
#	61125
#	79523
#	89524
#	108646
#	126005
#	136929
#	153866
#	166672
#
# Disc length: 2428 seconds
#
# Revision: 1
# Processed by: cddbd v1.5.2PL0 Copyright (c) Steve Scherf et al.
# Submitted via: audiograbber 1.83.01
#
DISCID=81097a0b
DTITLE=Alec Broennimann - Goodbye Until Tomorrow
DYEAR=2009
DGENRE=Musical
TTITLE0=Stars and the Moon
TTITLE1=Still Hurting
TTITLE2=My Stupid Mouth
TTITLE3=I Had Myself A True Love
TTITLE4=See What I Wanna See
TTITLE5=I Won't Mind
TTITLE6=Shiver Me Timbers
TTITLE7=Beat My Dog
TTITLE8=Bill
TTITLE9=Being Green
TTITLE10=Goodbye Until Tomorrow
EXTD=www.alecb.ch
EXTT0=
EXTT1=
EXTT2=
EXTT3=
EXTT4=
EXTT5=
EXTT6=
EXTT7=
EXTT8=
EXTT9=
EXTT10=
PLAYORDER=
